<svg xmlns="http://www.w3.org/2000/svg" xmlns:xlink="http://www.w3.org/1999/xlink" version="1.1" x="0px" y="0px" viewBox="0 0 100 125" enable-background="new 0 0 100 100" xml:space="preserve"><g display="none"><path display="inline" d="M50.002,32.008c9.916,0,17.989,8.07,17.989,17.992c0,9.92-8.073,17.99-17.989,17.99   c-9.921,0-17.995-8.07-17.995-17.99C32.007,40.078,40.081,32.008,50.002,32.008 M50.002,14.018   C30.13,14.018,14.018,30.127,14.018,50S30.13,85.982,50.002,85.982c19.873,0,35.98-16.109,35.98-35.982   S69.875,14.018,50.002,14.018L50.002,14.018z"/></g><g display="none"><path display="inline" d="M50.463,22.014c-19.869,0-35.984,11.045-35.984,24.674c0,6.475,3.667,12.341,9.612,16.748l-4.027,14.551   l20.54-7.579c3.132,0.612,6.438,0.968,9.859,0.968c19.873,0,35.98-11.05,35.98-24.684C86.443,33.059,70.336,22.014,50.463,22.014z"/></g><g display="none"><rect x="15.21" y="32.138" transform="matrix(0.7071 0.7071 -0.7071 0.7071 47.1313 -19.5224)" display="inline" width="63.843" height="29.986"/><polygon display="inline" points="64.752,85.957 64.842,86.045 85.982,85.98 86.045,64.842 85.957,64.756  "/></g><g><path d="M96.061,52.853h-8.788c-2.175,0-3.939,1.763-3.939,3.939v26.442H16.516V16.703h23.292c2.175,0,3.939-1.764,3.939-3.939   V3.939C43.747,1.764,41.982,0,39.808,0H3.939C1.764,0,0,1.764,0,3.939v92.121C0,98.237,1.764,100,3.939,100h92.121   c2.176,0,3.939-1.763,3.939-3.939V56.792C100,54.615,98.236,52.853,96.061,52.853z"/><path d="M33.183,27.061c-2.175,0-3.939,1.764-3.939,3.939v9.737c0,2.176,1.765,3.939,3.939,3.939h21.993v23.435   c0,2.175,1.764,3.938,3.939,3.938h10.851c2.175,0,3.939-1.764,3.939-3.938V44.677h21.43c2.175,0,3.939-1.764,3.939-3.939V31   c0-2.175-1.765-3.939-3.939-3.939h-21.43V3.94c0-2.175-1.765-3.938-3.939-3.938H59.115c-2.176,0-3.939,1.763-3.939,3.938v23.121   H33.183z"/></g><text x="0" y="115" fill="#000000" font-size="5px" font-weight="bold" font-family="'Helvetica Neue', Helvetica, Arial-Unicode, Arial, Sans-serif">Created by Stefan Parnarov</text><text x="0" y="120" fill="#000000" font-size="5px" font-weight="bold" font-family="'Helvetica Neue', Helvetica, Arial-Unicode, Arial, Sans-serif">from the Noun Project</text></svg>